# Blender 3.5.0
# www.blender.org
mtllib box.mtl
o Cube
v -1.000000 -0.810000 0.810000
v -0.810000 1.000000 0.810000
v -0.810000 -0.810000 -1.000000
v -0.810000 1.000000 -0.810000
v 1.000000 -0.810000 0.810000
v 1.000000 0.810000 0.810000
v 1.000000 -0.810000 -0.810000
v 1.000000 0.810000 -0.810000
v 0.810000 1.000000 -0.810000
v 0.810000 -0.810000 -1.000000
v 0.810000 -0.810000 1.000000
v 0.810000 1.000000 0.810000
v -1.000000 0.810000 0.810000
v -0.810000 0.810000 -1.000000
v 0.810000 0.810000 -1.000000
v 0.810000 0.810000 1.000000
v -1.000000 0.810000 -0.810000
v -1.000000 -0.810000 -0.810000
v 0.810000 -1.000000 -0.810000
v 1.000000 1.000000 -1.000000
v -0.810000 -1.000000 -0.810000
v -0.810000 -0.810000 1.000000
v -0.810000 0.810000 1.000000
v -1.000000 1.000000 -1.000000
v -0.810000 -1.000000 0.810000
v -1.000000 1.000000 1.000000
v 1.000000 1.000000 1.000000
v 0.810000 -1.000000 0.810000
v -1.000000 -1.000000 -1.000000
v -1.000000 -1.000000 1.000000
v 1.000000 -1.000000 -1.000000
v 1.000000 -1.000000 1.000000
v -0.810000 -0.900000 -0.810000
v -0.810000 -0.900000 0.810000
v 0.810000 -0.900000 -0.810000
v 0.810000 -0.900000 0.810000
v -0.900000 -0.810000 -0.810000
v -0.900000 -0.810000 0.810000
v -0.900000 0.810000 0.810000
v -0.900000 0.810000 -0.810000
v -0.810000 -0.810000 0.900000
v -0.810000 0.810000 0.900000
v 0.810000 0.810000 0.900000
v 0.810000 -0.810000 0.900000
v 0.900000 0.810000 -0.810000
v 0.900000 -0.810000 -0.810000
v 0.900000 -0.810000 0.810000
v 0.900000 0.810000 0.810000
v -0.810000 0.810000 -0.900000
v -0.810000 -0.810000 -0.900000
v 0.810000 -0.810000 -0.900000
v 0.810000 0.810000 -0.900000
v -0.810000 0.900000 0.810000
v -0.810000 0.900000 -0.810000
v 0.810000 0.900000 -0.810000
v 0.810000 0.900000 0.810000
vn -0.0000 -1.0000 -0.0000
vn -0.0000 1.0000 -0.0000
vn -0.0000 -0.0000 -1.0000
vn 1.0000 -0.0000 -0.0000
vn -1.0000 -0.0000 -0.0000
vn -0.0000 -0.0000 1.0000
vt 0.127148 0.128125
vt 0.000000 0.050000
vt 0.050000 1.000000
vt 0.127148 0.128125
vt 1.000000 0.050000
vt 0.050000 1.000000
vt 0.127148 0.128125
vt 0.950000 1.000000
vt 0.126811 0.874712
vt 0.050000 1.000000
vt 0.127148 0.128125
vt 1.000000 0.050000
vt 1.000000 0.950000
vt 1.000000 0.050000
vt 0.126811 0.874712
vt 1.000000 0.050000
vt 0.875704 0.127880
vt 1.000000 0.950000
vt 0.874040 0.872490
vt 1.000000 0.950000
vt 0.874040 0.872490
vt 0.950000 1.000000
vt 0.950000 1.000000
vt 0.875704 0.127880
vt 1.000000 0.050000
vt 0.000000 0.050000
vt 0.875704 0.127880
vt 0.950000 0.000000
vt 0.050000 1.000000
vt 0.875704 0.127880
vt 0.950000 1.000000
vt 0.000000 0.050000
vt 0.126811 0.874712
vt 0.000000 0.950000
vt 0.050000 1.000000
vt 0.126811 0.874712
vt 1.000000 0.950000
vt 1.000000 0.950000
vt 0.874040 0.872490
vt 0.950000 1.000000
vt 0.950000 0.000000
vt 0.874040 0.872490
vt 0.000000 0.950000
vt 0.000000 0.950000
vt 0.874040 0.872490
vt 0.000000 0.950000
vt 0.875704 0.127880
vt 0.000000 0.050000
vt 0.874040 0.872490
vt 0.950000 0.000000
vt 1.000000 1.000000
vt 0.050000 0.000000
vt 0.126811 0.874712
vt 0.950000 0.000000
vt 0.050000 0.000000
vt 0.127148 0.128125
vt 0.000000 0.050000
vt 0.000000 0.950000
vt 0.050000 0.000000
vt 0.126811 0.874712
vt 0.000000 1.000000
vt 1.000000 1.000000
vt 0.050000 0.000000
vt 0.127148 0.128125
vt 0.000000 0.000000
vt 0.000000 1.000000
vt 0.000000 1.000000
vt 1.000000 0.000000
vt 1.000000 1.000000
vt 0.950000 0.000000
vt 0.875704 0.127880
vt 0.050000 0.000000
vt 0.000000 0.000000
vt 1.000000 0.000000
vt 0.000000 1.000000
vt 0.000000 0.000000
vt 1.000000 0.000000
vt 1.000000 1.000000
vt 0.000000 0.000000
vt 1.000000 0.000000
vt 0.126811 0.874712
vt 0.127148 0.128125
vt 0.875704 0.127880
vt 0.127148 0.128125
vt 0.874040 0.872490
vt 0.875704 0.127880
vt 0.875704 0.127880
vt 0.127148 0.128125
vt 0.875704 0.127880
vt 0.126811 0.874712
vt 0.127148 0.128125
vt 0.127148 0.128125
vt 0.127148 0.128125
vt 0.126811 0.874712
vt 0.874040 0.872490
vt 0.126811 0.874712
vt 0.127148 0.128125
vt 0.127148 0.128125
vt 0.126811 0.874712
vt 0.875704 0.127880
vt 0.874040 0.872490
vt 0.126811 0.874712
vt 0.127148 0.128125
vt 0.875704 0.127880
vt 0.874040 0.872490
vt 0.875704 0.127880
vt 0.874040 0.872490
vt 0.127148 0.128125
vt 0.875704 0.127880
vt 0.875704 0.127880
vt 0.126811 0.874712
vt 0.874040 0.872490
vt 0.126811 0.874712
vt 0.874040 0.872490
vt 0.127148 0.128125
vt 0.126811 0.874712
vt 0.875704 0.127880
vt 0.874040 0.872490
vt 0.875704 0.127880
vt 0.874040 0.872490
vt 0.127148 0.128125
vt 0.126811 0.874712
vt 0.874040 0.872490
vt 0.126811 0.874712
vt 0.874040 0.872490
vt 0.875704 0.127880
vt 0.874040 0.872490
vt 0.126811 0.874712
s 0
f 17/44/1 39/93/1 13/32/1
f 3/6/2 51/118/2 10/23/2
f 6/14/1 45/105/1 8/20/1
f 23/59/1 43/100/1 16/41/1
f 25/63/3 36/87/3 28/70/3
f 2/3/4 54/123/4 4/8/4
f 7/17/4 20/51/4 8/19/4
f 5/11/4 31/77/4 7/17/4
f 8/19/4 27/67/4 6/15/4
f 6/15/4 32/79/4 5/11/4
f 4/9/2 26/65/2 2/4/2
f 9/21/2 24/61/2 4/9/2
f 12/30/2 20/51/2 9/21/2
f 2/4/2 27/68/2 12/30/2
f 3/7/3 24/61/3 14/36/3
f 10/24/3 29/73/3 3/7/3
f 14/36/3 20/51/3 15/39/3
f 15/39/3 31/77/3 10/24/3
f 18/47/5 30/76/5 1/1/5
f 1/1/5 26/66/5 13/33/5
f 13/33/5 24/62/5 17/45/5
f 17/45/5 29/74/5 18/47/5
f 23/60/6 30/76/6 22/56/6
f 11/27/6 27/69/6 16/42/6
f 22/56/6 32/80/6 11/27/6
f 16/42/6 26/66/6 23/60/6
f 25/64/1 29/75/1 21/53/1
f 21/53/1 31/78/1 19/49/1
f 19/49/1 32/80/1 28/71/1
f 28/71/1 30/76/1 25/64/1
f 35/85/1 34/84/1 33/81/1
f 19/50/6 33/82/6 21/52/6
f 28/72/5 35/86/5 19/50/5
f 21/54/4 34/84/4 25/63/4
f 39/94/5 37/89/5 38/92/5
f 1/2/2 37/90/2 18/46/2
f 18/48/6 40/96/6 17/44/6
f 13/34/3 38/92/3 1/2/3
f 43/101/6 41/97/6 44/104/6
f 16/43/5 44/103/5 11/26/5
f 11/28/2 41/97/2 22/55/2
f 22/57/4 42/99/4 23/58/4
f 45/105/4 47/108/4 46/106/4
f 8/20/6 46/106/6 7/16/6
f 5/12/3 48/112/3 6/13/3
f 7/18/2 47/109/2 5/12/2
f 49/113/3 51/119/3 50/115/3
f 15/40/1 49/113/1 14/35/1
f 14/37/4 50/117/4 3/5/4
f 10/25/5 52/120/5 15/38/5
f 54/124/2 56/126/2 55/125/2
f 12/31/3 53/122/3 2/3/3
f 4/10/6 55/125/6 9/22/6
f 9/22/5 56/128/5 12/29/5
f 17/44/1 40/96/1 39/93/1
f 3/6/2 50/116/2 51/118/2
f 6/14/1 48/110/1 45/105/1
f 23/59/1 42/98/1 43/100/1
f 25/63/3 34/84/3 36/87/3
f 2/3/4 53/122/4 54/123/4
f 7/17/4 31/77/4 20/51/4
f 5/11/4 32/79/4 31/77/4
f 8/19/4 20/51/4 27/67/4
f 6/15/4 27/67/4 32/79/4
f 4/9/2 24/61/2 26/65/2
f 9/21/2 20/51/2 24/61/2
f 12/30/2 27/68/2 20/51/2
f 2/4/2 26/65/2 27/68/2
f 3/7/3 29/73/3 24/61/3
f 10/24/3 31/77/3 29/73/3
f 14/36/3 24/61/3 20/51/3
f 15/39/3 20/51/3 31/77/3
f 18/47/5 29/74/5 30/76/5
f 1/1/5 30/76/5 26/66/5
f 13/33/5 26/66/5 24/62/5
f 17/45/5 24/62/5 29/74/5
f 23/60/6 26/66/6 30/76/6
f 11/27/6 32/80/6 27/69/6
f 22/56/6 30/76/6 32/80/6
f 16/42/6 27/69/6 26/66/6
f 25/64/1 30/76/1 29/75/1
f 21/53/1 29/75/1 31/78/1
f 19/49/1 31/78/1 32/80/1
f 28/71/1 32/80/1 30/76/1
f 35/85/1 36/87/1 34/84/1
f 19/50/6 35/86/6 33/82/6
f 28/72/5 36/88/5 35/86/5
f 21/54/4 33/83/4 34/84/4
f 39/94/5 40/95/5 37/89/5
f 1/2/2 38/92/2 37/90/2
f 18/48/6 37/91/6 40/96/6
f 13/34/3 39/94/3 38/92/3
f 43/101/6 42/99/6 41/97/6
f 16/43/5 43/102/5 44/103/5
f 11/28/2 44/104/2 41/97/2
f 22/57/4 41/97/4 42/99/4
f 45/105/4 48/111/4 47/108/4
f 8/20/6 45/105/6 46/106/6
f 5/12/3 47/109/3 48/112/3
f 7/18/2 46/107/2 47/109/2
f 49/113/3 52/120/3 51/119/3
f 15/40/1 52/120/1 49/113/1
f 14/37/4 49/114/4 50/117/4
f 10/25/5 51/119/5 52/120/5
f 54/124/2 53/121/2 56/126/2
f 12/31/3 56/127/3 53/122/3
f 4/10/6 54/124/6 55/125/6
f 9/22/5 55/125/5 56/128/5
